# xmcd
#
# Track frame offsets:
#	150
#	19189
#	39798
#	59455
#	73678
#	98934
#	112252
#	129571
#	146872
#	168352
#
# Disc length: 2556 seconds
#
# Revision: 0
# Processed by: cddbd v1.5.2PL0 Copyright (c) Steve Scherf et al.
# Submitted via: EasyCDDAExtractor 15.1.0.1
#
DISCID=9109fa0a
DTITLE=Richie Kotzen - 24 Hours
DYEAR=2011
DGENRE=Blues Rock
TTITLE0=24 Hours
TTITLE1=Help Me
TTITLE2=OMG (What’s Your Name?)
TTITLE3=Get It On
TTITLE4=Love Is Blind
TTITLE5=Stop Me
TTITLE6=Bad Situation
TTITLE7=i Don’t Know Why
TTITLE8=Tell Me That It’s Easy
TTITLE9=Twist Of Fate
EXTD=
EXTT0=
EXTT1=
EXTT2=
EXTT3=
EXTT4=
EXTT5=
EXTT6=
EXTT7=
EXTT8=
EXTT9=
PLAYORDER=
